<svg xmlns="http://www.w3.org/2000/svg" width="22" height="32" viewBox="80 -10 355 540">
<path d="M0 0 C0.73025391 0.21430664 1.46050781 0.42861328 2.21289062 0.64941406 C38.28783983 11.60586415 67.79602305 36.52445211 85.54296875 69.63671875 C95.63447322 89.39959327 100.39291388 110.30685685 100.1875 132.4375 C100.18685547 133.75298828 100.18621094 135.06847656 100.18554688 136.42382812 C100.15286868 143.76189881 99.84799622 150.98244069 99.08398438 158.28222656 C98.94717947 162.70929692 100.14336358 165.66247253 103 169 C105.36871752 171.07581159 107.82446377 172.97863188 110.3359375 174.87890625 C122.46469536 184.53567387 128.13855268 196.76248877 130 212 C130.43331901 227.89414135 125.0670673 241.72960714 114.1875 253.3125 C106.13893992 260.85224306 95.33625798 266.70670811 84.11328125 267.1015625 C83.06720703 267.05128906 83.06720703 267.05128906 82 267 C81.87015717 267.72952377 81.74031433 268.45904755 81.60653687 269.2106781 C81.03646918 271.83228672 80.2783026 274.13766419 79.29541016 276.62915039 C78.76393623 277.98518875 78.76393623 277.98518875 78.22172546 279.36862183 C77.83144669 280.35170319 77.44116791 281.33478455 77.0390625 282.34765625 C76.62594315 283.39776886 76.21282379 284.44788147 75.78718567 285.52981567 C74.40394883 289.0423656 73.01454152 292.55243986 71.625 296.0625 C70.89081917 297.92353877 70.156643 299.78457942 69.42288113 301.64578342 C65.95800238 310.43425281 62.48050453 319.21770922 59 328 C58.7243647 328.69555496 58.4487294 329.39110992 58.16474152 330.10774231 C51.36173485 347.27390371 44.54542013 364.4347676 37.72402763 381.59362984 C32.95523611 393.58978739 28.19840854 405.59064059 23.44775391 417.59399414 C21.71766951 421.96507467 19.9856282 426.33537014 18.25146484 430.70483398 C17.42284319 432.79280267 16.59422978 434.88077462 15.765625 436.96875 C15.36562286 437.97660049 14.96562073 438.98445099 14.55349731 440.02284241 C12.18698835 445.99061974 9.8353509 451.9639992 7.4959259 457.94244385 C6.03303952 461.67679595 4.56212776 465.40795452 3.08969116 469.1385498 C2.41790831 470.8464378 1.7498049 472.55577883 1.08584595 474.26672363 C-4.01997204 487.41969529 -9.01711869 499.87718316 -22.375 506.375 C-30.9700779 509.50287238 -41.97215273 509.53497318 -50.5625 506.375 C-63.34816543 500.17786625 -68.3074076 491.08484379 -73.2890625 478.22265625 C-73.78927614 476.95195924 -74.29036605 475.68160688 -74.79226685 474.41157532 C-76.13500159 471.00714294 -77.46601975 467.59824125 -78.79496765 464.1884079 C-80.19366872 460.60600578 -81.60361839 457.02803771 -83.01269531 453.44970703 C-85.28657471 447.67203626 -87.55498456 441.89225097 -89.81933594 436.11083984 C-93.7259971 426.13836414 -97.67099313 416.1811694 -101.61993408 406.22537231 C-103.50977244 401.45862124 -105.39520929 396.69012962 -107.28125 391.921875 C-110.71484064 383.24324031 -114.1533926 374.56657925 -117.59375 365.890625 C-118.54590215 363.48909652 -119.4980506 361.08756658 -120.45019531 358.68603516 C-121.82855086 355.20955849 -123.20708786 351.7331545 -124.58630371 348.25701904 C-125.01511841 347.17624084 -125.44393311 346.09546265 -125.88574219 344.98193359 C-126.30454651 343.92644318 -126.72335083 342.87095276 -127.15484619 341.78347778 C-128.35996586 338.74145386 -129.5600773 335.69748947 -130.75976562 332.65332031 C-132.20255428 328.99629718 -133.67007712 325.35105999 -135.16210938 321.71386719 C-135.4928949 320.89574554 -135.82368042 320.0776239 -136.16448975 319.23471069 C-136.76925534 317.73939934 -137.3829048 316.24763131 -138.00787354 314.76065063 C-139.77445378 310.35265257 -140.45390592 306.7370086 -140 302 C-138.00475077 299.06947769 -136.57163515 297.35478497 -133.02734375 296.5546875 C-129.66683934 296.366248 -127.53360079 296.56355306 -124.90283203 298.71533203 C-122.89035216 301.13165056 -121.80152682 303.21064524 -120.6171875 306.1171875 C-120.18229004 307.17341309 -119.74739258 308.22963867 -119.29931641 309.31787109 C-118.82929199 310.49172363 -118.35926758 311.66557617 -117.875 312.875 C-117.35516737 314.15336604 -116.83480315 315.43151602 -116.31396484 316.70947266 C-110.85336608 330.16640349 -105.60898943 343.71115637 -100.33935547 357.24365234 C-93.86362982 373.86229214 -87.24944909 390.42357132 -80.6048584 406.97531128 C-75.60130239 419.44237693 -70.62132963 431.91722633 -65.7421875 444.43359375 C-65.32648499 445.49973907 -64.91078247 446.5658844 -64.48248291 447.66433716 C-62.52606089 452.68647916 -60.57563469 457.71086315 -58.6328125 462.73828125 C-57.94014765 464.5221523 -57.24744171 466.3060074 -56.5546875 468.08984375 C-56.25150604 468.87999374 -55.94832458 469.67014374 -55.63595581 470.48423767 C-52.00182242 481.13709305 -52.00182242 481.13709305 -44.0546875 488.375 C-38.53919784 490.05271548 -33.65475593 489.55158531 -28.25 487.75 C-20.27853067 482.44225563 -17.15496089 468.62281406 -13.9375 460.0625 C-12.89240077 457.317329 -11.84107989 454.57455751 -10.7890625 451.83203125 C-10.35739525 450.70515396 -10.35739525 450.70515396 -9.91700745 449.55551147 C-5.63955813 438.41816864 -1.21512633 427.33827859 3.1875 416.25 C4.10544172 413.93670777 5.02332888 411.62339388 5.94116211 409.31005859 C7.31429723 405.84935829 8.68752147 402.38869353 10.06108093 398.92816162 C13.91550626 389.21663968 17.75962086 379.50106762 21.59918213 369.78366089 C23.31179066 365.44935613 25.02507823 361.1153198 26.73828125 356.78125 C27.07986267 355.91708969 27.42144409 355.05292938 27.77337646 354.1625824 C34.82869316 336.31367348 41.88605355 318.46558602 48.95977783 300.6239624 C49.9369208 298.1591174 50.91355384 295.69407086 51.89013672 293.22900391 C55.22848367 284.80646356 58.5872412 276.39274415 62 268 C62.36544922 267.09846191 62.73089844 266.19692383 63.10742188 265.26806641 C64.05698755 262.94306653 65.02327321 260.6261953 66 258.3125 C66.7425 256.54326172 66.7425 256.54326172 67.5 254.73828125 C69.11159966 251.7962725 70.02942931 250.52640051 73 249 C76.3203125 248.4453125 76.3203125 248.4453125 80.125 248.125 C90.54898289 246.96705968 97.59968828 243.62969791 104.30859375 235.45703125 C109.82342732 227.44587578 111.93385162 218.50493524 110.3125 208.9375 C107.87291973 198.56928384 102.53503016 192.16132159 93.9375 186.0625 C86.36928357 180.49978773 82.16575557 173.09617337 80 164 C79.54232777 159.21055677 79.72621199 154.67909051 80.5 149.93359375 C84.43061174 119.0107342 77.0553151 88.03544609 58.6875 62.8125 C41.49374651 40.86239889 19.97211616 25.71035363 -7 18 C-8.07636719 17.67902344 -9.15273438 17.35804687 -10.26171875 17.02734375 C-39.59549111 9.70241802 -72.46164358 15.65689994 -98.1875 31.0625 C-103.347164 34.4452389 -108.28008452 38.0271215 -113 42 C-113.79921875 42.66515625 -114.5984375 43.3303125 -115.421875 44.015625 C-134.99767238 60.9164687 -147.51890766 83.88062205 -153 109 C-153.22558594 110.03125 -153.45117188 111.0625 -153.68359375 112.125 C-156.15755969 125.50147794 -155.4376567 139.18842445 -153.875 152.625 C-152.61811223 163.65709474 -153.62455768 172.60876681 -160.3125 181.8046875 C-162.96814437 185.05207871 -165.8619434 187.79369131 -169.0625 190.5 C-176.4956147 196.92595603 -179.5782458 203.17353956 -181 213 C-181.34306747 222.29026705 -178.23459752 230.66260727 -172.375 237.8125 C-166.76096796 243.75244027 -159.53784968 247.49805523 -151.37109375 248.23828125 C-141.04321142 248.49957255 -133.47984943 246.51542265 -125.625 239.625 C-122.13888048 236.27168504 -119.01792446 232.77240558 -116 229 C-113.1214759 227.56073795 -111.20844808 227.69695886 -108 228 C-105.49445176 229.2427059 -103.35653602 230.45057728 -101.0625 232 C-100.44785889 232.40718262 -99.83321777 232.81436523 -99.19995117 233.23388672 C-91.26227857 238.66043727 -85.76618847 244.78045309 -83.44287109 254.27734375 C-82.91827445 257.50242739 -82.83693215 260.60756705 -82.7890625 263.875 C-82.76070313 265.18984375 -82.73234375 266.5046875 -82.703125 267.859375 C-82.66185023 269.93294081 -82.62492059 272.00626495 -82.59863281 274.08007812 C-82.57093583 276.09527256 -82.5239702 278.1101729 -82.4765625 280.125 C-82.4468335 281.92324219 -82.4468335 281.92324219 -82.41650391 283.7578125 C-81.858835 288.0988694 -80.30959562 290.73556285 -77.1875 293.75 C-74.31849321 295.38943245 -72.31525059 295.86999017 -69 296 C-64.44976883 294.53467132 -61.3848023 293.23964853 -59 289 C-57.94961077 285.84883231 -57.86934064 283.61872352 -57.8581543 280.31030273 C-57.85111984 279.14156113 -57.84408539 277.97281952 -57.83683777 276.7686615 C-57.83059135 274.87030296 -57.83059135 274.87030296 -57.82421875 272.93359375 C-57.8069571 270.9409472 -57.78967141 268.94830053 -57.77101612 266.95566654 C-57.72555778 262.04526285 -57.68776632 257.13496758 -57.67407227 252.22436523 C-57.66589462 249.47181007 -57.64720324 246.71970368 -57.61714172 243.96730042 C-57.58917291 241.37964322 -57.57605537 238.79176956 -57.58000183 236.20396423 C-57.43824836 225.96797833 -55.41377853 217.38124532 -48.15234375 209.828125 C-40.11819952 203.00420576 -31.98704418 200.92448055 -21.70703125 201.55078125 C-13.20874849 202.58060477 -6.61099535 206.5332973 -1 213 C3.46857903 220.19629724 5.12379925 226.21237315 5.2109375 234.6171875 C5.23900569 236.12631294 5.26767015 237.63542738 5.296875 239.14453125 C5.33808908 241.50992526 5.37500127 243.87511388 5.40136719 246.24072266 C5.42909807 248.53330165 5.47496151 250.82496548 5.5234375 253.1171875 C5.5283168 254.16747635 5.5283168 254.16747635 5.53329468 255.23898315 C5.64817911 259.86683545 6.59031492 263.05481044 9 267 C12.64168474 270.21325124 16.15515876 270.53503915 20.84765625 270.33984375 C24.29520514 269.79549393 25.79141337 268.6770747 28 266 C30.25279335 258.72364192 30.64602801 251.43616617 31.12304688 243.86914062 C31.81033856 234.83527966 31.81033856 234.83527966 35 231 C38.7373856 228.5084096 40.57331583 228.54206715 45 229 C48.10221362 230.82086452 49.6247423 231.9814434 50.875 235.375 C51 238 51 238 50.53125 240.6875 C49.94392703 244.34963145 49.77846662 247.91987737 49.625 251.625 C49.01500515 262.56466013 47.35234774 273.39423747 40 282 C30.8511893 289.09647086 22.26773872 289.80401805 11 289 C3.78242917 287.40037816 -2.21977847 283.63003869 -7 278 C-11.18562721 271.14889874 -13.13099813 265.2681703 -13.2109375 257.26171875 C-13.23901171 255.70376564 -13.26767621 254.14582307 -13.296875 252.58789062 C-13.33806853 250.13908244 -13.37496799 247.69046995 -13.40136719 245.24145508 C-13.42909593 242.87279908 -13.47496876 240.50502934 -13.5234375 238.13671875 C-13.5283168 237.04891365 -13.5283168 237.04891365 -13.53329468 235.93913269 C-13.64595281 231.24286357 -14.53698647 227.99837429 -17 224 C-20.41421579 221.07352933 -23.5092359 220.46610388 -28.00390625 220.64453125 C-31.35458518 221.2412275 -33.45623604 222.81963089 -36 225 C-38.11304272 228.2740339 -38.25063359 230.93430748 -38.25537109 234.78735352 C-38.26233002 235.9527919 -38.26928894 237.11823029 -38.27645874 238.31898499 C-38.27496323 240.20489601 -38.27496323 240.20489601 -38.2734375 242.12890625 C-38.28853751 244.11588103 -38.30366118 246.10285595 -38.32012367 248.08981991 C-38.35778229 252.97820191 -38.37500897 257.86661154 -38.38085938 262.75512695 C-38.38493152 265.49748804 -38.39964281 268.23942963 -38.42520142 270.98167419 C-38.44844476 273.55715003 -38.45610179 276.13282978 -38.44564819 278.70838928 C-38.5701172 289.85252384 -40.88803878 298.89140307 -48.71484375 307.0546875 C-55.59316381 312.91007791 -63.52769528 315.42227213 -72.47265625 315.2734375 C-82.18701601 314.22242485 -89.31890821 309.49311791 -95.53125 302.203125 C-99.94659634 296.40156527 -101.23902785 290.95918744 -101.2734375 283.66015625 C-101.29372334 282.25324721 -101.31457407 280.84634622 -101.3359375 279.43945312 C-101.35850483 277.24968609 -101.37500604 275.06023928 -101.38085938 272.87036133 C-101.17657252 261.70718863 -101.17657252 261.70718863 -106 252 C-107.84696963 250.51603787 -107.84696963 250.51603787 -110 251 C-111.18974287 252.12175756 -112.36746964 253.26002766 -113.46875 254.46875 C-123.15061218 264.15061218 -135.97804449 267.30187351 -149.20361328 267.31469727 C-163.66677447 267.05527525 -175.32104046 261.52454314 -185.8125 251.75 C-190.30624594 247.02312592 -193.30737472 241.91338606 -196 236 C-196.32871094 235.29488281 -196.65742188 234.58976563 -196.99609375 233.86328125 C-202.06020031 221.14243941 -200.70984121 205.97144426 -195.58984375 193.58984375 C-191.65007173 185.62647478 -186.51262254 179.94721801 -180 174 C-174.65066697 169.03202898 -174.65066697 169.03202898 -172.76953125 162.265625 C-172.79080078 160.77289063 -172.79080078 160.77289063 -172.8125 159.25 C-172.81894531 158.26515625 -172.82539063 157.2803125 -172.83203125 156.265625 C-172.95820389 152.92652883 -172.95820389 152.92652883 -173.49609375 149.34765625 C-178.04936434 114.75596185 -168.33844845 79.30776283 -147.96484375 51.19140625 C-146.03675945 48.73434455 -144.04869529 46.35718609 -142 44 C-141.29101562 43.16984375 -140.58203125 42.3396875 -139.8515625 41.484375 C-106.11275551 2.89191508 -49.61854097 -14.69764717 0 0 Z " fill="#2b4f7e" transform="translate(291,4)"/>
<path d="M0 0 C2.5625 2.0625 2.5625 2.0625 4 5 C4.62936085 10.84606302 3.16579167 14.0838172 -0.1875 18.6875 C-4.40821724 24.83535349 -7.3914403 30.99534168 -10 38 C-13.05503154 46.13709823 -13.05503154 46.13709823 -17 48 C-21.35802608 48.6338947 -23.26914026 48.49760663 -26.9375 46 C-29.02425876 42.96471454 -29.73429679 41.1715917 -29.484375 37.4921875 C-26.88098843 24.0973437 -20.1217411 11.10914606 -11 1 C-7.52499089 -0.73750455 -3.79143683 -0.58588811 0 0 Z " fill="#2b4f7e" transform="translate(200,79)"/>
<path d="M0 0 C2.47887524 2.15902037 2.9381573 3.79238523 3.875 6.9375 C4.03649824 10.89420681 3.65966924 12.03636856 1 15 C-4.34695819 18.5975837 -9.57108976 20.8514551 -16.0859375 20.4140625 C-18 20 -18 20 -20.5 18.4375 C-22.50133412 15.18533206 -22.93311096 12.81267501 -23 9 C-20.4481669 3.31081046 -16.6634846 2.02725438 -11.0859375 -0.11328125 C-6.74079181 -1.36182311 -4.31777724 -1.33458569 0 0 Z " fill="#2b4f7e" transform="translate(236,55)"/>
</svg>
